HIERARCHY
ROOT root     
{
	OFFSET 0.0000 0.0000 0.0000
	CHANNELS 6 Xposition Yposition Zposition Zrotation Yrotation Xrotation
	JOINT pelvis   
	{
		OFFSET 0.0000 0.0000 0.0000
		CHANNELS 3 Zrotation Yrotation Xrotation
		JOINT thorax   
		{
			OFFSET 0.0000 23.0750 -5.0000
			CHANNELS 3 Zrotation Yrotation Xrotation
			JOINT rclavicle
			{
				OFFSET 0.0000 28.0009 0.0000
				CHANNELS 3 Zrotation Yrotation Xrotation
				JOINT rhumerus 
				{
					OFFSET -18.5725 5.5939 0.0000
					CHANNELS 3 Zrotation Yrotation Xrotation
					JOINT rradius  
					{
						OFFSET -24.8459 0.0000 0.0000
						CHANNELS 3 Zrotation Yrotation Xrotation
						JOINT rhand    
						{
							OFFSET -24.5477 0.0000 0.0000
							CHANNELS 3 Zrotation Yrotation Xrotation
							End Site
							{
								OFFSET -8.1826 0.0000 0.0000
							}
						}
					}
				}
			}
			JOINT lclavicle
			{
				OFFSET 0.0000 28.0009 0.0000
				CHANNELS 3 Zrotation Yrotation Xrotation
				JOINT lhumerus 
				{
					OFFSET 18.5725 5.5939 0.0000
					CHANNELS 3 Zrotation Yrotation Xrotation
					JOINT lradius  
					{
						OFFSET 24.8459 0.0000 0.0000
						CHANNELS 3 Zrotation Yrotation Xrotation
						JOINT lhand    
						{
							OFFSET 24.5477 0.0000 0.0000
							CHANNELS 3 Zrotation Yrotation Xrotation
							End Site
							{
								OFFSET 8.1826 0.0000 0.0000
							}
						}
					}
				}
			}
			JOINT head     
			{
				OFFSET 0.0000 35.2030 0.0000
				CHANNELS 3 Zrotation Yrotation Xrotation
				End Site
				{
					OFFSET 0.0000 11.7343 0.0000
				}
			}
		}
		JOINT rfemur   
		{
			OFFSET -8.2817 0.0000 0.0000
			CHANNELS 3 Zrotation Yrotation Xrotation
			JOINT rtibia   
			{
				OFFSET 0.0000 -43.3627 0.0000
				CHANNELS 3 Zrotation Yrotation Xrotation
				JOINT rfoot    
				{
					OFFSET 0.0000 -38.2947 0.0000
					CHANNELS 3 Zrotation Yrotation Xrotation
					JOINT rtoes    
					{
						OFFSET 0.0000 0.0000 16.6054
						CHANNELS 3 Zrotation Yrotation Xrotation
						End Site
						{
							OFFSET 0.0000 0.0000 5.5351
						}
					}
				}
			}
		}
		JOINT lfemur   
		{
			OFFSET 8.2817 0.0000 0.0000
			CHANNELS 3 Zrotation Yrotation Xrotation
			JOINT ltibia   
			{
				OFFSET 0.0000 -43.3627 0.0000
				CHANNELS 3 Zrotation Yrotation Xrotation
				JOINT lfoot    
				{
					OFFSET 0.0000 -38.2947 0.0000
					CHANNELS 3 Zrotation Yrotation Xrotation
					JOINT ltoes    
					{
						OFFSET 0.0000 0.0000 16.6054
						CHANNELS 3 Zrotation Yrotation Xrotation
						End Site
						{
							OFFSET 0.0000 0.0000 5.5351
						}
					}
				}
			}
		}
	}
}
MOTION
Frames: 21
Frame Time:	0.0333333
55.1498 89.8678 -92.2411 -12.6884 -85.1038 34.7143 0.0000 -0.0000 0.0000 4.1983 -18.4948 -3.7699 22.8584 -16.8473 0.0000 41.2812 -31.3367 27.1204 -180.0000 78.4790 -180.0000 -8.3832 14.6923 -1.0827 -20.1453 12.6955 -0.0000 -47.9621 6.5872 24.6110 180.0000 -58.6940 180.0000 -0.2731 -0.3122 -0.0024 -1.7358 7.4577 -12.9522 -2.9555 -0.5967 -36.5891 -0.0000 -0.0000 21.5046 0.0227 -5.3130 12.4547 -1.1490 -0.0000 -71.2850 -0.2465 3.7983 -2.1306 -0.0000 -0.0000 19.6564 -0.0082 4.9326 24.1992 2.0261 -0.0000 -59.6859
48.9073 90.0230 -92.9657 -6.6966 -85.1319 28.2811 0.0000 -0.0000 0.0000 3.3527 -18.7877 -4.0935 22.9752 -17.1756 -0.0000 41.9997 -33.0387 25.3794 -180.0000 75.7240 -180.0000 -6.7633 14.7482 -0.8763 -18.9831 12.7288 -0.0000 -47.1091 8.6657 26.8548 -180.0000 -57.8510 180.0000 -1.2406 0.0502 -0.0019 -1.2593 7.6286 -12.2611 -3.4346 -0.1645 -35.6450 -0.0000 -0.0000 12.8142 0.0246 -2.2860 13.8611 -0.5479 0.0000 -73.8667 0.0822 5.4544 -0.9505 -0.0000 -0.0000 23.6621 -0.0082 10.0169 22.6539 3.8919 -0.0000 -48.0277
42.6121 89.0667 -93.7513 -1.5587 -85.1787 22.1218 0.0000 -0.0000 0.0000 2.0080 -18.7333 -3.6051 23.8659 -17.1424 -0.0000 43.1403 -33.0216 23.3361 -180.0000 74.3970 180.0000 -6.2581 14.1385 -0.7768 -18.3377 13.0345 0.0000 -46.5218 10.3383 28.8582 180.0000 -58.2640 180.0000 -1.3686 0.1878 -0.0024 -0.5480 7.2815 -11.9880 -2.2511 -1.4900 -35.3297 -0.0000 -0.0000 10.9303 0.0264 -0.4334 14.6863 -0.1099 0.0000 -75.3079 0.4485 5.9475 -0.3761 -0.0000 -0.0000 30.6109 -0.0082 14.2215 18.9492 4.7048 0.0000 -41.4025
36.4091 87.0017 -94.7315 -5.3220 -85.3447 24.8158 0.0000 -0.0000 0.0000 1.4545 -18.0016 -3.1438 24.6354 -16.9994 -0.0000 44.6794 -31.4785 21.5854 -180.0000 74.0470 -180.0000 -5.4634 14.1699 -0.6796 -18.5530 13.3351 -0.0000 -46.2660 12.0627 29.9814 180.0000 -59.3460 180.0000 -1.8135 0.3327 -0.0053 -0.3986 6.7712 -12.0863 -0.5134 -1.5136 -35.9096 -0.0000 -0.0000 15.5925 0.0283 -1.6777 14.3637 -0.4163 0.0000 -72.9100 1.4830 5.9884 -0.9582 -0.0000 -0.0000 39.9378 -0.0082 15.7689 16.5706 4.6044 0.0000 -42.1705
30.5826 83.9520 -95.8570 -21.1168 -85.4190 40.3653 0.0000 -0.0000 0.0000 2.5018 -16.4280 -3.8012 25.5110 -16.4982 -0.0000 46.1208 -28.8309 19.4900 -180.0000 75.1380 180.0000 -3.8153 14.4570 -0.4841 -20.2802 13.6229 -0.0000 -46.1345 13.2623 29.6640 180.0000 -61.8260 -180.0000 -3.4493 0.5394 -0.0162 -0.7988 6.3517 -12.6111 1.4518 0.2161 -38.8221 -0.0000 -0.0000 27.1705 0.0302 -3.7287 9.0522 -0.5875 0.0000 -66.2352 3.3090 6.1777 -3.6314 -0.0000 -0.0000 51.1771 -0.0082 15.3171 14.7723 3.9948 -0.0000 -43.1212
25.2082 80.5025 -96.9356 -40.2680 -84.7629 60.0533 0.0000 -0.0000 0.0000 4.5052 -14.1460 -5.2717 27.5718 -14.8942 -0.0000 46.7583 -24.8276 16.6449 -180.0000 79.2590 180.0000 -3.5506 13.5346 -0.4215 -23.1448 13.7788 -0.0000 -46.6018 13.5304 28.0920 -180.0000 -67.8760 180.0000 -3.8372 0.5910 -0.0184 -1.3010 6.0870 -13.1511 3.7409 2.2978 -42.8092 -0.0000 -0.0000 41.7319 0.0320 -4.9771 -0.7471 0.0651 0.0000 -60.0109 5.3776 6.0031 -8.1465 -0.0000 -0.0000 63.0803 -0.0082 14.7539 10.8133 2.8285 -0.0000 -38.4817
20.1675 77.7318 -97.8089 -54.1886 -83.4139 74.5314 0.0000 -0.0000 0.0000 6.6015 -11.4036 -6.2546 30.7779 -12.0924 0.0000 45.8336 -18.5833 15.2413 -180.0000 86.1875 -180.0000 -6.2224 11.7463 -0.6407 -26.1620 13.7442 0.0000 -48.0247 13.6041 25.6697 -180.0000 -77.5900 180.0000 0.0171 0.5916 0.0001 -2.1046 6.1955 -13.2770 6.3470 3.8698 -44.3399 -0.0000 -0.0000 51.9937 0.0338 -5.9717 -9.9874 1.0393 -0.0000 -58.9413 7.2267 5.1430 -13.5454 -0.0000 -0.0000 73.6804 -0.0082 15.2426 4.0537 1.1035 -0.0000 -30.4967
15.2715 76.3982 -98.2234 -61.3724 -82.5926 81.7364 0.0000 -0.0000 0.0000 7.1646 -8.5120 -6.0018 33.3888 -9.1887 -0.0000 44.2774 -10.8737 17.9440 -0.0000 88.2791 -0.0000 -9.7501 11.0610 -0.9463 -27.8227 13.8180 0.0000 -49.6978 14.7124 23.0487 180.0000 -86.7863 180.0000 5.8273 0.4918 0.0250 -2.9389 6.4552 -13.1025 8.1684 4.3053 -42.0210 -0.0000 -0.0000 55.2325 0.0355 -6.2085 -15.6496 1.6809 0.0000 -60.3986 7.6210 3.7343 -19.0282 -0.0000 -0.0000 80.7776 -0.0082 16.5462 -3.8701 -1.1487 -0.0000 -20.5810
10.3783 76.5932 -98.0993 -62.7265 -82.9474 82.8973 0.0000 -0.0000 0.0000 5.4971 -5.4594 -5.2751 33.5848 -7.4243 -0.0000 44.6998 -3.8520 23.3579 -0.0000 88.6189 -0.0000 -10.4771 12.4557 -1.1465 -27.4661 14.3643 0.0000 -49.4717 17.9143 22.3319 180.0000 -89.8346 -180.0000 7.8914 -0.1236 -0.0085 -2.7463 5.8409 -13.0929 8.2524 3.9776 -37.0896 -0.0000 -0.0000 53.0927 0.0372 -5.7550 -17.4631 1.7323 0.0000 -60.9877 6.0727 1.9228 -24.5181 -0.0000 -0.0000 82.8535 -0.0082 17.3451 -10.6720 -3.3102 0.0000 -10.9049
5.3711 78.1308 -97.6329 -56.9673 -83.4804 77.2284 0.0000 -0.0000 0.0000 3.0036 -2.0632 -5.1075 31.4643 -6.9287 -0.0000 47.6005 0.8126 27.6718 -180.0000 85.6785 -180.0000 -7.9960 14.0795 -0.9890 -25.8765 15.1475 0.0000 -46.2743 22.6057 24.8189 180.0000 -86.3930 180.0000 5.5959 -1.0595 -0.0518 -1.3286 3.6355 -13.3740 7.4826 3.5128 -31.2630 -0.0000 -0.0000 48.1726 0.0389 -5.8420 -15.7197 1.5879 0.0000 -62.5553 3.9724 -0.3710 -29.7615 -0.0000 -0.0000 79.4433 -0.0082 16.6419 -15.0483 -4.4377 0.0000 -4.9333
-0.0013 80.7890 -96.9223 -43.7300 -83.0124 63.8906 0.0000 -0.0000 0.0000 1.0425 1.1163 -5.1277 29.3070 -6.9945 -0.0000 50.0459 2.9694 29.7483 -180.0000 78.5980 -180.0000 -5.9762 14.3176 -0.7513 -24.2610 15.4841 0.0000 -41.7948 26.8465 28.5180 -180.0000 -81.4129 180.0000 2.7065 -1.7841 -0.0464 0.1694 0.4094 -13.4816 6.9360 2.0478 -24.8491 -0.0000 -0.0000 41.8332 0.0405 -5.8648 -9.1562 0.9364 -0.0000 -70.0474 2.5289 -3.4120 -33.2261 -0.0000 -0.0000 70.5037 -0.0082 15.1627 -17.1192 -4.5608 0.0000 -2.4271
-5.9176 84.1107 -95.8272 -27.0179 -81.5627 46.1555 0.0000 -0.0000 0.0000 -0.9072 3.1820 -4.4307 28.5381 -7.2472 -0.0000 50.7438 4.0567 30.4881 -180.0000 73.8670 180.0000 -5.5355 14.0859 -0.6844 -22.7102 15.1544 0.0000 -38.6263 30.2883 31.1615 180.0000 -78.1890 180.0000 2.1566 -1.9777 -0.0460 1.0524 -2.6237 -12.7597 5.9036 -2.1981 -17.7492 -0.0000 -0.0000 34.9609 0.0420 -2.7153 3.2135 -0.1523 0.0000 -83.0433 0.9201 -6.8982 -33.2249 -0.0000 -0.0000 55.9741 -0.0082 14.3543 -15.7831 -3.9817 -0.0000 -4.5075
-12.1943 87.3066 -94.4564 -14.2309 -79.6649 31.7997 0.0000 -0.0000 0.0000 -3.1367 4.3748 -3.4049 27.8575 -7.8443 0.0000 51.8462 4.9368 30.9969 -180.0000 72.3790 180.0000 -5.1945 13.7725 -0.6278 -20.7356 14.9511 0.0000 -37.2115 33.2861 32.6758 -180.0000 -76.1080 180.0000 2.5117 -2.2716 -0.0483 1.6788 -4.8463 -11.2015 3.7095 -8.1798 -11.0394 -0.0000 -0.0000 29.2812 0.0434 4.4085 18.5244 1.4030 0.0000 -90.4422 -1.5154 -9.3122 -29.9467 -0.0000 -0.0000 36.9284 -0.0082 14.3010 -8.9661 -2.2751 0.0000 -10.3839
-18.4000 89.5048 -93.3631 -12.5936 -77.9153 29.2273 0.0000 -0.0000 0.0000 -3.9143 5.6794 -3.5121 25.7385 -8.6575 -0.0000 54.4184 5.0537 31.8595 -180.0000 72.1430 180.0000 -4.3875 13.4382 -0.5171 -18.4179 15.5708 0.0000 -36.8572 35.9709 33.8338 180.0000 -73.7070 -180.0000 1.4942 -2.8724 -0.0375 2.2024 -6.3417 -9.5687 2.3981 -12.4985 -6.6384 -0.0000 -0.0000 26.7589 0.0447 9.8353 30.1906 4.9825 -0.0000 -89.0902 -3.4637 -8.3417 -26.8444 -0.0000 -0.0000 18.5938 -0.0082 13.0013 1.8896 0.4362 0.0000 -18.3686
-24.3834 90.3972 -92.5522 -16.5200 -76.2161 32.8515 0.0000 -0.0000 0.0000 -3.2718 6.7978 -4.4063 23.5408 -9.1949 -0.0000 56.4570 4.5116 32.6394 -180.0000 71.5680 -180.0000 -3.4615 13.3556 -0.4054 -16.6209 16.6870 -0.0000 -37.2612 38.1248 34.2276 180.0000 -71.1630 180.0000 -0.2302 -3.0018 0.0060 2.5817 -7.2879 -8.7295 2.4853 -14.8855 -4.6000 -0.0000 -0.0000 28.1822 0.0460 7.0877 34.1723 3.9950 0.0000 -86.9848 -6.4996 -1.8875 -27.0326 -0.0000 -0.0000 7.8291 -0.0082 6.9004 10.9502 1.3169 0.0000 -30.5128
-30.1885 90.1378 -91.5339 -17.6947 -74.2457 33.6307 0.0000 -0.0000 0.0000 -2.6502 6.9411 -4.7294 22.7341 -9.4190 -0.0000 56.9965 4.2541 32.7917 -180.0000 71.4050 -180.0000 -2.8236 13.4496 -0.3330 -16.2420 17.6654 0.0000 -38.5930 39.2429 33.0445 -180.0000 -69.3680 180.0000 -0.9413 -2.3464 0.0210 2.6818 -7.7124 -8.7914 2.0350 -16.8835 -3.4852 -0.0000 -0.0000 32.5464 0.0471 -0.5070 31.6170 -0.2658 -0.0000 -84.2212 -11.6288 5.4473 -29.1733 -0.0000 -0.0000 3.6427 -0.0082 0.3115 16.3531 0.0877 -0.0000 -43.8075
-35.9706 88.8144 -90.4007 -17.8792 -71.7999 32.8680 0.0000 -0.0000 0.0000 -1.6077 6.4226 -4.1773 22.6808 -9.6112 -0.0000 57.2140 4.0916 32.3398 -180.0000 72.4820 -180.0000 -3.2412 13.3955 -0.3807 -17.1693 18.2097 0.0000 -40.8275 38.9147 30.7104 180.0000 -68.6150 -180.0000 -0.9783 -1.6778 0.0210 2.3128 -7.7857 -9.2548 1.2405 -18.3727 -2.2752 -0.0000 -0.0000 37.9432 0.0481 -6.4931 27.0730 -2.9652 -0.0000 -80.8949 -16.1217 10.1713 -31.0572 -0.0000 -0.0000 4.1081 -0.0082 -1.1331 18.3203 -0.3562 -0.0000 -44.6077
-41.7689 86.4417 -89.3722 -18.9898 -69.5064 32.8369 0.0000 -0.0000 0.0000 -0.3811 6.2220 -3.7011 23.3598 -9.7795 -0.0000 57.2998 3.2848 31.3678 -180.0000 74.1100 -180.0000 -4.2737 13.1042 -0.4911 -18.5993 18.2501 -0.0000 -43.2744 37.2423 28.3378 180.0000 -68.9070 -180.0000 -1.4913 -1.5708 0.0204 1.7184 -7.7467 -9.8505 0.5371 -18.8094 -1.5622 -0.0000 -0.0000 43.9081 0.0490 -9.7600 23.0193 -3.8481 0.0000 -78.6430 -17.3715 10.6443 -31.8544 -0.0000 -0.0000 8.7445 -0.0082 3.5919 14.5298 0.9023 0.0000 -25.7773
-47.1908 83.1041 -88.3770 -19.0184 -68.0867 32.6056 0.0000 -0.0000 0.0000 -0.3515 6.1898 -4.3694 25.5870 -9.6001 -0.0000 56.4174 2.2892 29.7734 -180.0000 76.3550 180.0000 -3.6735 12.8153 -0.4127 -20.5342 18.1418 0.0000 -44.9403 34.1078 26.4736 -180.0000 -70.5760 180.0000 -1.8419 -1.4772 0.0237 1.2428 -7.2699 -10.7116 -0.8482 -18.4858 -3.1729 -0.0000 -0.0000 51.5171 0.0497 -11.7887 18.1132 -3.7124 0.0000 -76.5726 -15.9778 5.6388 -33.3610 -0.0000 -0.0000 18.3930 -0.0082 11.4156 2.7235 -179.4500 -0.0000 -1.5613
-51.9773 79.2424 -87.3249 -17.1123 -67.2958 31.3775 0.0000 -0.0000 0.0000 -1.5261 5.4214 -5.6812 28.5705 -9.0146 -0.0000 55.2255 1.9159 27.6876 -180.0000 81.6303 -180.0000 -1.3857 12.9637 -0.1574 -23.4789 18.3230 -0.0000 -45.4346 28.5626 25.1708 180.0000 -74.0390 -180.0000 -0.6407 -0.5371 0.0030 1.1362 -5.8554 -11.6833 -3.0490 -17.3159 -7.4581 -0.0000 -0.0000 60.6466 0.0502 -13.3098 11.6423 -2.7332 0.0000 -73.1240 -15.2809 0.2457 -37.7517 -0.0000 -0.0000 33.9844 -0.0082 16.4433 -12.7577 176.2710 -0.0000 -15.8252
-56.2100 75.8593 -86.0369 -12.9170 -66.3135 27.9538 0.0000 -0.0000 0.0000 -3.4208 3.6889 -6.2492 30.6795 -8.4352 -0.0000 55.2874 1.4247 24.9446 -0.0000 88.6167 -0.0000 -1.2781 13.6183 -0.1526 -27.0876 18.3952 -0.0000 -45.0499 20.0168 24.5568 180.0000 -78.7730 180.0000 1.6036 1.0777 0.0151 1.7555 -4.0003 -12.1669 -5.8445 -14.9476 -13.1602 -0.0000 -0.0000 69.3299 0.0507 -13.9704 5.0951 -1.2657 0.0000 -68.3428 -16.2370 -3.0712 -41.1708 -0.0000 -0.0000 47.8274 -0.0082 18.9317 -23.8935 172.0910 0.0000 -17.2253
